<?xml version="1.0" encoding="utf-8"?>
<svg version="1.1" xmlns="http://www.w3.org/2000/svg" viewBox="0 0 20 20">
	<symbol id="time" viewBox="0 0 20 20">
		<path d="M10,20A10,10,0,1,1,14.25.95L13.6,2.34A8.46,8.46,0,1,0,18.46,10a8.48,8.48,0,0,0-.27-2.13l1.49-.39A10,10,0,0,1,10,20Z"/>
		<rect x="9.42" y="2.31" width="1.15" height="2.31"/>
		<rect x="9.42" y="15.38" width="1.15" height="2.31"/>
		<rect x="4.72" y="4.34" width="0.77" height="1.54" transform="translate(-2.11 5.1) rotate(-45)"/>
		<rect x="14.51" y="14.13" width="0.77" height="1.54" transform="translate(-6.17 14.9) rotate(-45)"/>
		<rect x="4.72" y="14.13" width="0.77" height="1.54" transform="translate(-1.82 29.04) rotate(-135)"/>
		<rect x="15.96" y="8.85" width="1.15" height="2.31" transform="translate(26.54 -6.54) rotate(90)"/>
		<rect x="2.88" y="8.85" width="1.15" height="2.31" transform="translate(13.46 6.54) rotate(90)"/>
		<path d="M18.07,4.11a10,10,0,0,0-1.29-1.44L9.94,10.17,6.79,7.24,5.48,8.65l4.57,4.25Z"/>
	</symbol>
	<symbol id="value" viewBox="0 0 20 20">
		<path d="M17.1,2.9L10-0.1l-7,3L0,10l2.9,7.1l7.1,2.9l7.1-3L20,10L17.1,2.9z M18.2,9.4h-2.4l-1.3-3.2l1.7-1.7L18.2,9.4z M6.2,14.4
			l3.3,1.4v2.4l-5.1-2.1L6.2,14.4z M10.5,15.8l3.2-1.3l1.7,1.7l-4.9,2L10.5,15.8z M13,13.1l-3,1.3l-3.1-1.3L5.7,10l1.3-3.1L10,5.6
			l3.1,1.3l1.3,3.1L13,13.1z M13.7,5.6l-3.2-1.4V1.8l4.9,2L13.7,5.6z M9.5,4.2L6.3,5.6L4.6,3.9l4.9-2.1L9.5,4.2z M3.9,4.6l1.7,1.7
			L4.3,9.4H1.9L3.9,4.6z M1.8,10.4h2.4l1.3,3.2l-1.7,1.7L1.8,10.4z M16.1,15.4l-1.7-1.7l1.4-3.3h2.4L16.1,15.4z"/>
	</symbol>
	<symbol id="info" viewBox="0 0 20 20">
		<path d="M10,0A10,10,0,1,0,20,10,10,10,0,0,0,10,0Zm7.63,6.27H14a12.1,12.1,0,0,0-1.53-4.4A8.53,8.53,0,0,1,17.63,6.27ZM12.84,10c0,.78,0,1.51-.11,2.2H7.4c-.07-.69-.11-1.42-.11-2.2a22.08,22.08,0,0,1,.11-2.24h5.32A22.08,22.08,0,0,1,12.84,10Zm-2.77,8.25c-.84,0-1.93-1.67-2.45-4.55h4.91C12,16.59,10.91,18.26,10.06,18.26ZM1.5,10a8.46,8.46,0,0,1,.31-2.23h4.1c-.07.74-.12,1.49-.12,2.24s0,1.47.11,2.2H1.8A8.46,8.46,0,0,1,1.5,10ZM7.62,6.27c.53-2.86,1.61-4.51,2.45-4.51S12,3.41,12.51,6.27Zm0-4.44A12,12,0,0,0,6.11,6.27H2.37A8.53,8.53,0,0,1,7.67,1.83ZM2.36,13.71H6.1a12.08,12.08,0,0,0,1.55,4.46A8.53,8.53,0,0,1,2.36,13.71ZM12.5,18.12A12.18,12.18,0,0,0,14,13.71h3.61A8.53,8.53,0,0,1,12.5,18.12Zm5.7-5.92h-4c.07-.73.11-1.47.11-2.2s0-1.5-.12-2.24h4a8.25,8.25,0,0,1,0,4.44Z"/>
	</symbol>
	<symbol id="close" viewBox="0 0 20 20">
		<polygon points="20,16 14,10 20,4 16,0 10,6 4,0 0,4 6,10 0,16 4,20 10,14 16,20 "/>
	</symbol>
	<symbol id="arrow-down" viewBox="0 0 20 20">
		<polygon points="10,12.1 2.1,4.3 0,6.4 10,16.4 20,6.4 17.9,4.3 "/>
	</symbol>
	<symbol id="menu" viewBox="0 0 20 20">
		<rect width="20" height="4"/>
		<rect y="16" width="20" height="4"/>
		<rect y="8" width="20" height="4"/>
	</symbol>
	<symbol id="search" viewBox="0 0 20 20">
		<path d="M8.55,17.11a8.55,8.55,0,1,1,8.55-8.55A8.56,8.56,0,0,1,8.55,17.11Zm0-14A5.48,5.48,0,1,0,14,8.55,5.48,5.48,0,0,0,8.55,3.08Z" transform="translate(0 0)"/>
		<path d="M19.27,15.72l-2.59-2.59a9.37,9.37,0,0,1-3.54,3.54l2.59,2.59a2.51,2.51,0,0,0,3.54-3.54Z" transform="translate(0 0)"/>
	</symbol>
	<symbol id="settings" viewBox="0 0 20 20">
		<path d="M19.9,8.9c0-0.3-0.4-0.5-0.6-0.5c-0.9,0-1.7-0.5-2.1-1.4c-0.3-0.9-0.1-1.8,0.6-2.5C18,4.4,18,4,17.8,3.8
			c-0.5-0.6-1-1.1-1.6-1.6C16,2,15.7,2,15.5,2.3c-0.6,0.7-1.7,0.9-2.5,0.6c-0.9-0.4-1.4-1.2-1.3-2.2c0-0.3-0.2-0.5-0.5-0.6
			C10.4,0,9.7,0,8.9,0.1c-0.3,0-0.5,0.3-0.5,0.6c0,0.9-0.5,1.8-1.4,2.1C6.2,3.1,5.2,2.9,4.6,2.2C4.4,2,4,2,3.8,2.1
			c-0.6,0.5-1.1,1-1.6,1.6C2,4,2,4.3,2.3,4.5C3,5.1,3.2,6.1,2.8,7C2.5,7.8,1.6,8.3,0.6,8.3c-0.3,0-0.5,0.2-0.6,0.5
			C0,9.6,0,10.4,0.1,11.1c0,0.3,0.4,0.5,0.7,0.5c0.9,0,1.7,0.5,2.1,1.4c0.4,0.9,0.1,1.8-0.6,2.5C2,15.6,2,16,2.2,16.2
			c0.5,0.6,1,1.1,1.6,1.6C4,18,4.3,18,4.5,17.7c0.6-0.7,1.7-0.9,2.5-0.6c0.9,0.4,1.4,1.2,1.4,2.2c0,0.3,0.2,0.6,0.5,0.6
			C9.2,20,9.6,20,10,20c0.4,0,0.7,0,1.1-0.1c0.3,0,0.5-0.3,0.5-0.6c0-0.9,0.5-1.8,1.4-2.1c0.8-0.3,1.9-0.1,2.5,0.6
			c0.2,0.2,0.5,0.2,0.8,0.1c0.6-0.5,1.1-1,1.6-1.6c0.2-0.2,0.2-0.6-0.1-0.8c-0.7-0.6-0.9-1.6-0.6-2.5c0.3-0.8,1.2-1.4,2-1.4l0.1,0
			c0.3,0,0.5-0.2,0.6-0.5C20,10.4,20,9.6,19.9,8.9z M10,15c-2.8,0-5-2.2-5-5s2.2-5,5-5c2.8,0,5,2.2,5,5S12.8,15,10,15z"/>
	</symbol>
	<symbol id="dots" viewBox="0 0 20 4">
		<circle cx="10" cy="2" r="2"/>
		<circle cx="18" cy="2" r="2"/>
		<circle cx="2" cy="2" r="2"/>
	</symbol>
</svg>
