<svg id="Layer_1" data-name="Layer 1" xmlns="http://www.w3.org/2000/svg" width="20" height="20" viewBox="0 0 20 20">
	<title>info</title>
	<path d="M10,0A10,10,0,1,0,20,10,10,10,0,0,0,10,0Zm7.63,6.27H14a12.1,12.1,0,0,0-1.53-4.4A8.53,8.53,0,0,1,17.63,6.27ZM12.84,10c0,.78,0,1.51-.11,2.2H7.4c-.07-.69-.11-1.42-.11-2.2a22.08,22.08,0,0,1,.11-2.24h5.32A22.08,22.08,0,0,1,12.84,10Zm-2.77,8.25c-.84,0-1.93-1.67-2.45-4.55h4.91C12,16.59,10.91,18.26,10.06,18.26ZM1.5,10a8.46,8.46,0,0,1,.31-2.23h4.1c-.07.74-.12,1.49-.12,2.24s0,1.47.11,2.2H1.8A8.46,8.46,0,0,1,1.5,10ZM7.62,6.27c.53-2.86,1.61-4.51,2.45-4.51S12,3.41,12.51,6.27Zm0-4.44A12,12,0,0,0,6.11,6.27H2.37A8.53,8.53,0,0,1,7.67,1.83ZM2.36,13.71H6.1a12.08,12.08,0,0,0,1.55,4.46A8.53,8.53,0,0,1,2.36,13.71ZM12.5,18.12A12.18,12.18,0,0,0,14,13.71h3.61A8.53,8.53,0,0,1,12.5,18.12Zm5.7-5.92h-4c.07-.73.11-1.47.11-2.2s0-1.5-.12-2.24h4a8.25,8.25,0,0,1,0,4.44Z"/>
</svg>
