<svg id="Layer_1" data-name="Layer 1" xmlns="http://www.w3.org/2000/svg" width="20" height="20" viewBox="0 0 20 20">
	<title>time</title>
	<g id="time">
		<path d="M10,20A10,10,0,1,1,14.25.95L13.6,2.34A8.46,8.46,0,1,0,18.46,10a8.48,8.48,0,0,0-.27-2.13l1.49-.39A10,10,0,0,1,10,20Z"/>
		<rect x="9.42" y="2.31" width="1.15" height="2.31"/>
		<rect x="9.42" y="15.38" width="1.15" height="2.31"/>
		<rect x="4.72" y="4.34" width="0.77" height="1.54" transform="translate(-2.11 5.1) rotate(-45)"/>
		<rect x="14.51" y="14.13" width="0.77" height="1.54" transform="translate(-6.17 14.9) rotate(-45)"/>
		<rect x="4.72" y="14.13" width="0.77" height="1.54" transform="translate(-1.82 29.04) rotate(-135)"/>
		<rect x="15.96" y="8.85" width="1.15" height="2.31" transform="translate(26.54 -6.54) rotate(90)"/>
		<rect x="2.88" y="8.85" width="1.15" height="2.31" transform="translate(13.46 6.54) rotate(90)"/>
		<path d="M18.07,4.11a10,10,0,0,0-1.29-1.44L9.94,10.17,6.79,7.24,5.48,8.65l4.57,4.25Z"/>
	</g>
</svg>
