<?xml version="1.0" ?>
<svg version="1.1" xmlns="http://www.w3.org/2000/svg" >
<g id="value" viewBox="0 0 20 20">
<path d="M17.1,2.9L10-0.1l-7,3L0,10l2.9,7.1l7.1,2.9l7.1-3L20,10L17.1,2.9z M18.2,9.4h-2.4l-1.3-3.2l1.7-1.7L18.2,9.4z M6.2,14.4
	l3.3,1.4v2.4l-5.1-2.1L6.2,14.4z M10.5,15.8l3.2-1.3l1.7,1.7l-4.9,2L10.5,15.8z M13,13.1l-3,1.3l-3.1-1.3L5.7,10l1.3-3.1L10,5.6
	l3.1,1.3l1.3,3.1L13,13.1z M13.7,5.6l-3.2-1.4V1.8l4.9,2L13.7,5.6z M9.5,4.2L6.3,5.6L4.6,3.9l4.9-2.1L9.5,4.2z M3.9,4.6l1.7,1.7
	L4.3,9.4H1.9L3.9,4.6z M1.8,10.4h2.4l1.3,3.2l-1.7,1.7L1.8,10.4z M16.1,15.4l-1.7-1.7l1.4-3.3h2.4L16.1,15.4z"/>
</g>

</svg>
